<?xml version="1.0" encoding="UTF-8" standalone="no"?>
<!-- Created with Inkscape (http://www.inkscape.org/) -->

<svg
   xmlns:svg="http://www.w3.org/2000/svg"
   xmlns="http://www.w3.org/2000/svg"
   xmlns:sodipodi="http://sodipodi.sourceforge.net/DTD/sodipodi-0.dtd"
   xmlns:inkscape="http://www.inkscape.org/namespaces/inkscape"
   width="2318"
   height="739"
   id="svg2"
   version="1.1"
   inkscape:version="0.48.1 r9760"
   sodipodi:docname="Logo_Banco_Santander.svg"
   style="display:inline">
  <defs
     id="defs4" />
  <sodipodi:namedview
     id="base"
     pagecolor="#ffffff"
     bordercolor="#666666"
     borderopacity="1.0"
     inkscape:pageopacity="0.0"
     inkscape:pageshadow="2"
     inkscape:zoom="0.59706644"
     inkscape:cx="1159"
     inkscape:cy="369.5"
     inkscape:document-units="px"
     inkscape:current-layer="layer4"
     showgrid="true"
     inkscape:window-width="1920"
     inkscape:window-height="955"
     inkscape:window-x="0"
     inkscape:window-y="0"
     inkscape:window-maximized="1"
     fit-margin-top="0"
     fit-margin-left="0"
     fit-margin-right="0"
     fit-margin-bottom="0"
     showguides="true"
     inkscape:guide-bbox="true" />
  <g
     inkscape:groupmode="layer"
     id="layer4"
     inkscape:label="Logo"
     style="display:inline"
     transform="translate(450.42856,-448.57648)">
    <path
       sodipodi:nodetypes="ccccc"
       inkscape:connector-curvature="0"
       id="path3004"
       d="m -450.93364,450.53365 2317.99994,0 0,739.00005 -2317.99994,0 z"
       style="opacity:1;fill:#fe0000;fill-opacity:1;display:inline" />
    <path
       style="fill:#ffffff;display:inline;opacity:1"
       d="m -11.42856,566.57648 c -1.30356,11.51398 -0.758164,23.86037 2.55356,33.82977 4.4598052,13.42551 10.62867,23.10439 33.34375,52.65625 23.96876,31.18288 31.639597,42.48555 37.34375,58.65625 4.663045,13.21926 4.75894,20.85773 2.75894,32.85773 21,4 55.41997,15.1513 78.49106,28.98602 21.3997,13.1608 36.958,30.22544 42.65625,46.78125 3.3709,9.79389 3.23314,24.97428 -0.34375,34.46875 -3.43514,9.11821 -8.14441,16.73123 -15.09375,24.34375 -27.6195,30.25524 -82.30917,51.98804 -148.1875,58.90625 -14.57226,1.5303 -50.28403,2.61902 -62.53125,1.90625 -88.00179,-5.12162 -158.76735,-35.52635 -178.90625,-76.84375 -8.37526,-17.18287 -8.17081,-31.97564 0.65625,-48.96875 7.27826,-14.01148 27.22795,-31.32765 50.6875,-44.03125 22.56856,-10.86532 43.75673,-18.98417 66.46875,-25.375 1.10269,14.82648 29.997815,50.26522 39.5625,62.8125 20.85576,27.30012 29.105888,40.32101 35,50.75 3.54019,6.26398 5.54019,10.26398 4.54019,22.1875 0,0 8.02549,-7.26608 11.05356,-13.4375 3.91796,-7.98508 5.3156,-16.08871 4.5625,-26.5 -0.90714,-12.54072 -3.03744,-20.22498 -9.03125,-32.5 -5.82753,-11.9345 -14.18005,-24.00722 -30.0625,-43.5 -22.42593,-27.52369 -30.73015,-42.64407 -34.15625,-62.28125 -3.80299,-21.79737 2.32327,-44.96492 14.875,-56.25 2.73111,-2.45551 7.125,-4.84375 7.125,-4.84375 0,0 -0.375,5.61688 -0.375,12 0,13.50008 1.54003,20.5286 6.71875,30.8125 6.43096,12.77058 15.33214,24.70877 42.625,57.1875 24.15476,28.74437 31.65625,43.34753 31.65625,61.59375 0,4.28444 0.0089,8.79523 0.0089,8.79523 0,0 6.38064,-4.86699 9.33481,-9.32648 9.36418,-14.13575 10.84722,-36.18626 3.71875,-55.71875 -4.8866,-13.3896 -12.80545,-25.57492 -36.21875,-55 -23.83477,-29.95477 -33.83481,-53.95477 -33.83481,-73.95477 0,-20 4.341868,-39.08024 23,-51 z"
       id="path2996"
       inkscape:connector-curvature="0"
       sodipodi:nodetypes="csssccssssssscccscsssssscsssscsssscc" />
    <path
       sodipodi:nodetypes="sssssssssscccssssssssssscccssss"
       inkscape:connector-curvature="0"
       id="path3010"
       d="m 436.32386,861.07648 c 0.53914,-6.68106 0.0297,-13.2548 -0.70025,-16.76258 -2.86903,-13.78682 -13.04148,-27.64114 -27.77261,-37.82476 -4.46601,-3.08735 -17.88165,-10.03835 -31.75617,-16.45372 -27.80355,-12.85595 -35.60969,-17.49131 -42.52807,-25.25356 -6.77895,-7.6058 -9.28385,-14.35922 -9.3489,-25.20538 -0.0433,-7.21994 0.36342,-9.40357 2.70081,-14.5 7.55914,-16.48196 26.44715,-25.25008 48.40277,-22.46935 12.94781,1.63987 19.73064,4.53264 27.35922,11.66828 7.97843,7.46289 12.03997,16.10736 14.23673,30.30107 l 0.65405,8 12,0 -1,-55 -4,-1 c -3.02172,-0.75543 -22.95119,-4.54623 -33.5,-5.87701 -15.75279,-1.98729 -22.13735,-2.22167 -31.40513,-1.15291 -17.96137,2.07131 -32.81722,8.88795 -44.02583,20.20136 -11.41584,11.52257 -16.95583,23.75152 -17.81673,39.32856 -0.88297,15.97652 4.21784,29.20774 15.63221,40.5491 9.5805,9.51921 13.66643,11.98004 43.27526,26.06333 37.89217,18.02322 46.46562,23.34795 52.21208,36.88757 4.98659,11.74924 5.35006,24.94497 0.18652,35.5 -13.19564,26.97383 -54.72317,34.00859 -80.57363,13.67891 -9.65209,-7.59073 -16.72785,-19.09095 -19.02968,-30.92891 l -1.21528,-6.25 -10.23979,-0.002 1.82516,52.66089 c 0,0 19.68124,5.28918 28.85686,6.2652 6.93462,0.73764 13.84424,2.07591 20.81798,2.07591 14,0 20.48794,1.83735 35,-3 15,-5 48,-15 51.75242,-61.5 z"
       style="fill:#ffffff;display:inline;opacity:1" />
    <path
       style="fill:#ffffff;fill-opacity:1;display:inline;opacity:1"
       d="m 528.57144,774.57648 c 16,0 30,7 36.64731,17.32977 6.28489,9.76658 6.35269,18.159 6.35269,23.67023 l 0,76 c 0,9 6.5222,11.89922 15.92856,8.73602 l 7.07144,-2.73602 0,10 -35.00894,15.29852 c -4.06241,1.80953 -6.84085,-2.32819 -8.78125,-9.96875 l -2.20981,-7.32977 -5.82144,4.54852 c -8.24153,6.43943 -19.17856,12.45148 -35.17856,12.45148 -15.10337,0.0645 -25,-2 -34.82144,-17.67023 -4.59886,-9.05385 -5.09483,-21.22766 -1.21875,-30 4.49392,-10.17066 13.39778,-15.38656 50.78125,-29.84375 l 25.25894,-9.48602 0,-7 c 0,-26 -7,-34 -16,-39 -7.23861,-4.02145 -16.84481,-2.98114 -26,3 -7.56985,4.94542 -9.8681,13.28732 -5.97769,21.86102 3.00196,6.61574 1.96875,4.54007 1.96875,4.75 l -20.53125,10.84375 c 0,0 -3.54749,-6.0796 -4.5625,-9.40625 -4.71625,-15.45726 1.33847,-24.17451 24.53125,-36.9375 12.12667,-6.6733 19.2574,-9.11102 27.57144,-9.11102 z m 19,72 c 0,0 -32.90862,13.8923 -39.22769,17.11102 -5.05269,2.57368 -10.84458,7.16115 -12.77231,10.88898 -2.50989,4.85359 -2.09241,13.7232 1,19 2.90225,4.95231 6.41479,8.99693 11,11 1.65,0.72081 7.15,1.9789 11,2 7.80377,0.0428 16.03137,-3.22405 24.42856,-10.20148 l 4.57144,-3.79852 z"
       id="path3798"
       inkscape:connector-curvature="0"
       sodipodi:nodetypes="ssssscccccsccscccsssccssscsssssscc" />
    <path
       style="fill:#ffffff;fill-opacity:1;display:inline;opacity:1"
       d="m 1101,326 0,26.90625 6.875,-6.5 C 1122.7742,332.31978 1137,326 1148,326 c 25,0 48,22 47,53 0,0 0,34.43393 0,72 0,8 2,13 10,13 l 13,0 0,10 -69,0 0,-10 10,0 c 8,0 11,-5 11,-13 l 0,-72 c 0,-15 -5.5038,-22.50379 -10,-27 -6,-6 -13.2949,-7.68701 -24,-7 -8.3187,0.53386 -16.8405,4.93292 -26.625,12.84375 L 1103,363 l 0,93 c 0,5 2,8 7,8 l 13,0 0,10 -68,0 0,-10 9,0 c 8,0 14,-5 14,-13 l 0,-77 c 0,-20 -6,-26 -23,-17 l -2e-4,-10.6875 C 1066,343 1086,333 1097,326 z"
       id="path3812"
       inkscape:connector-curvature="0"
       sodipodi:nodetypes="ccsssssccccsssssscssccccssscccc"
       transform="translate(-450.42856,448.57648)" />
    <path
       sodipodi:nodetypes="ssccssscccccccccsss"
       inkscape:connector-curvature="0"
       id="path3825"
       d="m 843.57144,922.57648 c 9,0 11.11391,-1 19.5,-8.07656 l 16.5,-13.92344 -4,-7 -7.357,3.92031 c -10.98589,5.85403 -19.643,7.07969 -30.643,2.07969 -9.3728,-4.26036 -15,-19 -15,-27 l 0,-80.96314 46,-0.0369 5,-13.99996 -51,-4e-5 0,-46 -5,4e-5 c -12,22 -30,43 -52,56 l 0,4 32,-4e-5 0,81.00004 c 0,19 7,33 18,41 10.43747,7.59089 17,9 28,9 z"
       style="fill:#ffffff;fill-opacity:1;display:inline;opacity:1" />
    <path
       sodipodi:nodetypes="ssssscccccsccscccsssccssscsssssscc"
       inkscape:connector-curvature="0"
       id="path3810"
       d="m 949.57164,774.57648 c 16,0 30,7 36.64731,17.32977 6.28489,9.76658 6.35269,18.159 6.35269,23.67023 l 0,76 c 0,9 6.52208,11.89922 15.92836,8.73602 l 7.0714,-2.73602 0,10 -35.0087,15.29852 c -4.06241,1.80953 -6.84085,-2.32819 -8.78125,-9.96875 l -2.20981,-7.32977 -5.82144,4.54852 c -8.24153,6.43943 -19.17856,12.45148 -35.17856,12.45148 -15.10337,0.0645 -25,-2 -34.82144,-17.67023 -4.59886,-9.05385 -5.09483,-21.22766 -1.21875,-30 4.49392,-10.17066 13.39778,-15.38656 50.78125,-29.84375 l 25.25894,-9.48602 0,-7 c 0,-26 -7,-34 -16,-39 -7.23861,-4.02145 -16.84481,-2.98114 -26,3 -7.56985,4.94542 -9.8681,13.28732 -5.97769,21.86102 3.00196,6.61574 1.96875,4.54007 1.96875,4.75 l -20.53125,10.84375 c 0,0 -3.54749,-6.0796 -4.5625,-9.40625 -4.71625,-15.45726 1.33847,-24.17451 24.53125,-36.9375 12.12667,-6.6733 19.2574,-9.11102 27.57144,-9.11102 z m 19,72 c 0,0 -32.90862,13.8923 -39.22769,17.11102 -5.05269,2.57368 -10.84458,7.16115 -12.77231,10.88898 -2.50989,4.85359 -2.09241,13.7232 1,19 2.90225,4.95231 6.41479,8.99693 11,11 1.65,0.72081 7.15,1.9789 11,2 7.80377,0.0428 16.03137,-3.22405 24.42856,-10.20148 l 4.57144,-3.79852 z"
       style="fill:#ffffff;fill-opacity:1;display:inline;opacity:1" />
    <path
       sodipodi:nodetypes="ccsssssccccsssssscssccccssscccc"
       inkscape:connector-curvature="0"
       id="path3823"
       d="m 1071.5714,774.57648 0,26.90625 6.875,-6.5 c 14.8992,-14.08647 29.125,-20.40625 40.125,-20.40625 25,0 48,22 47,53 0,0 0,34.43393 0,72 0,8 2,13 10,13 l 13,0 0,10 -69,0 0,-10 10,0 c 8,0 11,-5 11,-13 l 0,-72 c 0,-15 -5.5038,-22.50379 -10,-27 -6,-6 -13.2949,-7.68701 -24,-7 -8.3187,0.53386 -16.8405,4.93292 -26.625,12.84375 l -6.375,5.15625 0,93 c 0,5 2,8 7,8 l 13,0 0,10 -68,0 0,-10 9,0 c 8,0 14,-5 14,-13 l 0,-77 c 0,-20 -6,-26 -23,-17 l -2e-4,-10.6875 c 11.0002,-3.3125 31.0002,-13.3125 42.0002,-20.3125 z"
       style="fill:#ffffff;fill-opacity:1;display:inline;opacity:1" />
    <path
       sodipodi:nodetypes="ccsccccccsccssssssscccssssccsss"
       inkscape:connector-curvature="0"
       id="path3830"
       d="m 1368.5714,905.57648 0,-10 c -11,5 -16,5 -19.7631,2.45337 -5.3862,-3.645 -5.2369,-10.45337 -5.2369,-10.45337 l 0,-220 -3,0 c -14.4747,9.17784 -31.9999,18 -47,23 l 0,11 c 8,-3 13.9883,-4.58388 19,-2 3.2776,1.80499 5,4 5,9 l 0,36.78489 0,37.98263 -5.871,-2.3714 c -11.7837,-4.75965 -17.8683,-5.86508 -32.129,-5.8371 -11.9345,0.0234 -14.4302,0.33709 -21.5211,2.70492 -32.8839,10.98075 -53.9223,43.09945 -52.1904,79.6776 0.9906,20.92261 7.0478,37.34671 20.7115,49.05846 14,12 26,16 40,16 19,0 30.0091,-3.79283 43.7765,-13.13426 4.2235,-2.86574 8.2235,-5.86574 8.2235,-5.86574 1,10 3.4411,16 7,21 z m -103.6695,-1.79152 c -18.6818,-6.67349 -32.2605,-29.71089 -34.0146,-57.70848 -2.1927,-34.99832 17.206,-59.5 47.1079,-59.5 12.5651,0 22.2136,3.4428 33.8363,12.07356 l 5.76,4.2773 -0.5201,89.87211 -6.4138,3.87795 c -10.9034,6.5925 -16.1672,8.1439 -29.0862,8.5726 -9.343,0.31003 -12.4696,0.0352 -16.6695,-1.46504 z"
       style="fill:#ffffff;fill-opacity:1;display:inline;opacity:1" />
    <path
       sodipodi:nodetypes="sccssccssssssssssccs"
       inkscape:connector-curvature="0"
       id="path3835"
       d="m 1476.0714,921.07753 c 8.3118,-2.20325 19.5,-6.50105 32.5,-14.50105 l 0,-10 c -11,8 -28.4335,12.97296 -44,13 -16.8924,0.0293 -30,-5 -39,-15 -13.2785,-14.75397 -17,-27 -19.296,-56.99999 l 105.296,-1e-5 c 0,0 0,-15 -6,-29 -4.1126,-9.59616 -8,-17 -19,-24 -10.2982,-6.5534 -24.2057,-9.33389 -36,-9.40957 -12.2678,-0.0787 -14.1695,0.15774 -20.8346,2.59069 -31.1316,11.36386 -52.3204,43.6074 -49.7221,75.66354 2.5136,31.01101 20.6313,55.87583 47.9855,65.85553 12.107,4.41705 34.9703,5.27356 48.0712,1.80086 z m -57.5,-123.50105 c 7,-7 15,-11 28,-11 12,0 20,3 28,11 6,6 9,11 10.2798,28.00001 l -78.5516,0 c 1.2718,-12.00001 5.2718,-21.00001 12.2718,-28.00001 z"
       style="fill:#ffffff;fill-opacity:1;display:inline;opacity:1" />
    <path
       style="fill:#ffffff;fill-opacity:1;display:inline;opacity:1"
       d="m 1570.5714,774.57648 0,33 c 5.2622,-9.05409 10,-15 19,-24 6.9443,-6.94421 16,-9 23,-9 5,0 18,4 18,4 l 0,30 -5,0 c -2,-8 -9,-12 -19,-12 -13,0 -21.5,5.25 -26.75,13.125 -5.2499,7.875 -7.25,11.875 -7.25,28.875 l 0,66 c 0,5 2,8 7,8 l 13,0 0,10 -68,0 0,-10 9,0 c 8,0 14,-5 14,-13 l 0,-77 c 0,-22 -8,-21 -22,-15 l 0,-10 c 13,-5 29,-12 41,-23 z"
       id="path3842"
       inkscape:connector-curvature="0"
       sodipodi:nodetypes="ccsscccsssssccccssscccc" />
  </g>
</svg>
